<svg xmlns="http://www.w3.org/2000/svg" xmlns:xlink="http://www.w3.org/1999/xlink" width="1000" zoomAndPan="magnify" viewBox="0 0 375 374.999991" height="650" preserveAspectRatio="xMidYMid meet" version="1.0"><defs><g/><clipPath id="f47e2902ca"><path d="M 157.214844 128 L 178 128 L 178 159 L 157.214844 159 Z M 157.214844 128 " clip-rule="nonzero"/></clipPath><clipPath id="6a37053e59"><path d="M 157.214844 127 L 179 127 L 179 160 L 157.214844 160 Z M 157.214844 127 " clip-rule="nonzero"/></clipPath><clipPath id="6d3054f378"><path d="M 197 128 L 217.964844 128 L 217.964844 159 L 197 159 Z M 197 128 " clip-rule="nonzero"/></clipPath><clipPath id="928aa3ec67"><path d="M 196 127 L 217.964844 127 L 217.964844 160 L 196 160 Z M 196 127 " clip-rule="nonzero"/></clipPath><clipPath id="3b6d103af1"><path d="M 177 119.902344 L 198 119.902344 L 198 167.152344 L 177 167.152344 Z M 177 119.902344 " clip-rule="nonzero"/></clipPath></defs><g clip-path="url(#f47e2902ca)"><path fill="#03fa6e" d="M 176.378906 158.425781 C 176.042969 158.425781 175.714844 158.3125 175.449219 158.101562 L 158.460938 144.710938 C 158.09375 144.421875 157.886719 143.992188 157.886719 143.527344 C 157.886719 143.0625 158.09375 142.628906 158.460938 142.339844 L 175.449219 128.953125 C 175.714844 128.742188 176.042969 128.628906 176.378906 128.628906 C 176.84375 128.628906 177.277344 128.835938 177.5625 129.203125 C 177.808594 129.519531 177.921875 129.914062 177.875 130.3125 C 177.828125 130.714844 177.625 131.070312 177.3125 131.320312 L 161.828125 143.527344 L 177.3125 155.730469 C 177.625 155.984375 177.828125 156.339844 177.875 156.738281 C 177.921875 157.140625 177.808594 157.53125 177.5625 157.851562 C 177.277344 158.214844 176.84375 158.425781 176.378906 158.425781 " fill-opacity="1" fill-rule="nonzero"/></g><g clip-path="url(#6a37053e59)"><path fill="#2a446b" d="M 176.378906 127.984375 C 175.902344 127.984375 175.433594 128.148438 175.054688 128.445312 L 158.0625 141.835938 C 157.542969 142.25 157.246094 142.863281 157.246094 143.527344 C 157.246094 144.1875 157.542969 144.804688 158.0625 145.214844 L 175.054688 158.609375 C 175.429688 158.902344 175.902344 159.066406 176.378906 159.066406 C 177.042969 159.066406 177.660156 158.765625 178.066406 158.246094 C 178.421875 157.796875 178.578125 157.234375 178.511719 156.664062 C 178.445312 156.09375 178.160156 155.582031 177.707031 155.230469 L 162.863281 143.527344 L 177.707031 131.824219 C 178.160156 131.46875 178.445312 130.960938 178.511719 130.390625 C 178.578125 129.820312 178.421875 129.257812 178.066406 128.804688 C 177.660156 128.285156 177.042969 127.984375 176.378906 127.984375 Z M 176.378906 129.269531 C 176.636719 129.269531 176.890625 129.382812 177.058594 129.597656 C 177.355469 129.976562 177.289062 130.519531 176.914062 130.816406 L 160.789062 143.527344 L 176.914062 156.238281 C 177.289062 156.535156 177.355469 157.078125 177.058594 157.453125 C 176.890625 157.671875 176.636719 157.785156 176.378906 157.785156 C 176.191406 157.785156 176.007812 157.726562 175.847656 157.597656 L 158.855469 144.207031 C 158.648438 144.042969 158.527344 143.792969 158.527344 143.527344 C 158.527344 143.261719 158.648438 143.011719 158.855469 142.847656 L 175.847656 129.453125 C 176.003906 129.328125 176.191406 129.269531 176.378906 129.269531 " fill-opacity="1" fill-rule="nonzero"/></g><g clip-path="url(#6d3054f378)"><path fill="#03fa6e" d="M 198.796875 158.425781 C 198.332031 158.425781 197.902344 158.214844 197.613281 157.851562 C 197.101562 157.199219 197.214844 156.25 197.867188 155.730469 L 213.351562 143.527344 L 197.867188 131.320312 C 197.214844 130.804688 197.101562 129.855469 197.613281 129.203125 C 197.902344 128.835938 198.332031 128.628906 198.796875 128.628906 C 199.132812 128.628906 199.464844 128.742188 199.726562 128.953125 L 216.71875 142.339844 C 217.082031 142.628906 217.289062 143.0625 217.289062 143.527344 C 217.289062 143.992188 217.082031 144.421875 216.714844 144.710938 L 199.726562 158.101562 C 199.464844 158.3125 199.132812 158.425781 198.796875 158.425781 " fill-opacity="1" fill-rule="nonzero"/></g><g clip-path="url(#928aa3ec67)"><path fill="#2a446b" d="M 198.796875 127.984375 C 198.136719 127.984375 197.519531 128.285156 197.109375 128.804688 C 196.378906 129.738281 196.539062 131.089844 197.46875 131.824219 L 212.316406 143.527344 L 197.46875 155.230469 C 196.539062 155.960938 196.378906 157.316406 197.109375 158.246094 C 197.519531 158.769531 198.136719 159.066406 198.796875 159.066406 C 199.277344 159.066406 199.746094 158.902344 200.121094 158.609375 L 217.113281 145.214844 C 217.632812 144.804688 217.929688 144.1875 217.929688 143.527344 C 217.929688 142.863281 217.632812 142.25 217.117188 141.835938 L 200.125 128.445312 C 199.75 128.148438 199.277344 127.984375 198.796875 127.984375 Z M 198.796875 129.269531 C 198.984375 129.269531 199.175781 129.328125 199.332031 129.453125 L 216.320312 142.847656 C 216.527344 143.011719 216.648438 143.261719 216.648438 143.527344 C 216.648438 143.792969 216.527344 144.042969 216.320312 144.207031 L 199.332031 157.597656 C 199.175781 157.726562 198.984375 157.785156 198.796875 157.785156 C 198.539062 157.785156 198.289062 157.671875 198.117188 157.453125 C 197.824219 157.078125 197.886719 156.535156 198.261719 156.238281 L 214.386719 143.527344 L 198.261719 130.816406 C 197.886719 130.519531 197.824219 129.976562 198.117188 129.597656 C 198.289062 129.382812 198.542969 129.269531 198.796875 129.269531 " fill-opacity="1" fill-rule="nonzero"/></g><path fill="#03fa6e" d="M 179.144531 166.507812 C 178.957031 166.507812 178.777344 166.472656 178.601562 166.40625 C 178.226562 166.257812 177.929688 165.976562 177.769531 165.609375 C 177.605469 165.238281 177.597656 164.832031 177.742188 164.457031 L 194.335938 121.507812 C 194.558594 120.933594 195.121094 120.546875 195.738281 120.546875 C 195.925781 120.546875 196.109375 120.582031 196.28125 120.648438 C 197.054688 120.949219 197.441406 121.824219 197.140625 122.601562 L 180.550781 165.542969 C 180.328125 166.121094 179.761719 166.507812 179.144531 166.507812 " fill-opacity="1" fill-rule="nonzero"/><g clip-path="url(#3b6d103af1)"><path fill="#2a446b" d="M 195.738281 119.90625 C 194.859375 119.90625 194.054688 120.460938 193.738281 121.277344 L 177.144531 164.222656 C 176.9375 164.757812 176.953125 165.339844 177.183594 165.867188 C 177.414062 166.390625 177.835938 166.796875 178.371094 167.003906 C 178.621094 167.101562 178.878906 167.148438 179.144531 167.148438 C 180.023438 167.148438 180.828125 166.597656 181.148438 165.777344 L 197.738281 122.832031 C 198.167969 121.726562 197.617188 120.476562 196.511719 120.050781 C 196.265625 119.953125 196.003906 119.90625 195.738281 119.90625 Z M 195.738281 121.1875 C 195.84375 121.1875 195.945312 121.207031 196.050781 121.246094 C 196.496094 121.417969 196.714844 121.921875 196.542969 122.367188 L 179.949219 165.3125 C 179.820312 165.65625 179.492188 165.867188 179.144531 165.867188 C 179.039062 165.867188 178.9375 165.847656 178.832031 165.804688 C 178.386719 165.632812 178.167969 165.132812 178.339844 164.6875 L 194.933594 121.742188 C 195.066406 121.398438 195.390625 121.1875 195.738281 121.1875 " fill-opacity="1" fill-rule="nonzero"/></g><g fill="#ffffff" fill-opacity="1"><g transform="translate(154.783525, 191.838995)"><g><path d="M 6.558594 0 C 12.125 0 14.898438 -3.070312 14.898438 -8.101562 L 14.898438 -8.144531 C 14.898438 -13.035156 12.144531 -16.066406 6.558594 -16.066406 L 1.070312 -16.066406 L 1.070312 0 Z M 4.199219 -13.15625 L 6.480469 -13.15625 C 9.886719 -13.15625 11.710938 -11.390625 11.710938 -8.144531 L 11.710938 -8.101562 C 11.710938 -4.714844 9.867188 -2.914062 6.480469 -2.914062 L 4.199219 -2.914062 Z M 4.199219 -13.15625 "/></g></g></g><g fill="#ffffff" fill-opacity="1"><g transform="translate(169.719286, 191.838995)"><g><path d="M 2.636719 -12.859375 C 3.507812 -12.859375 4.199219 -13.292969 4.199219 -14.246094 C 4.199219 -15.097656 3.566406 -15.613281 2.636719 -15.613281 C 1.722656 -15.613281 1.070312 -15.097656 1.070312 -14.246094 C 1.070312 -13.292969 1.78125 -12.859375 2.636719 -12.859375 Z M 4.21875 0 L 4.21875 -11.371094 L 1.070312 -11.371094 L 1.070312 0 Z M 4.21875 0 "/></g></g></g><g fill="#ffffff" fill-opacity="1"><g transform="translate(174.255354, 191.838995)"><g><path d="M 4.21875 0 L 4.21875 -8.835938 C 4.855469 -8.976562 5.429688 -9.035156 5.925781 -9.035156 C 7.152344 -9.035156 7.945312 -8.519531 7.945312 -7.074219 L 7.945312 0 L 11.074219 0 L 11.074219 -7.074219 C 11.074219 -8.261719 11.433594 -9.035156 12.976562 -9.035156 C 14.523438 -9.035156 14.878906 -8.261719 14.878906 -7.074219 L 14.878906 0 L 18.03125 0 L 18.03125 -7.429688 C 18.03125 -10.699219 16.226562 -11.847656 13.273438 -11.847656 C 11.628906 -11.847656 10.304688 -11.390625 9.492188 -10.324219 C 8.777344 -11.433594 7.507812 -11.847656 6.0625 -11.847656 C 5.050781 -11.847656 3.011719 -11.609375 1.070312 -11.253906 L 1.070312 0 Z M 4.21875 0 "/></g></g></g><g fill="#ffffff" fill-opacity="1"><g transform="translate(192.598247, 191.838995)"><g><path d="M 2.636719 -12.859375 C 3.507812 -12.859375 4.199219 -13.292969 4.199219 -14.246094 C 4.199219 -15.097656 3.566406 -15.613281 2.636719 -15.613281 C 1.722656 -15.613281 1.070312 -15.097656 1.070312 -14.246094 C 1.070312 -13.292969 1.78125 -12.859375 2.636719 -12.859375 Z M 4.21875 0 L 4.21875 -11.371094 L 1.070312 -11.371094 L 1.070312 0 Z M 4.21875 0 "/></g></g></g><g fill="#ffffff" fill-opacity="1"><g transform="translate(197.134315, 191.838995)"><g><path d="M 9.769531 0 L 9.769531 -2.914062 L 7.570312 -2.914062 C 6.222656 -2.914062 5.605469 -3.425781 5.605469 -4.695312 L 5.605469 -8.480469 L 9.746094 -8.480469 L 9.746094 -11.371094 L 5.605469 -11.371094 L 5.605469 -14.859375 L 2.457031 -14.859375 L 2.457031 -11.371094 L 0.457031 -11.371094 L 0.457031 -8.480469 L 2.457031 -8.480469 L 2.457031 -3.703125 C 2.457031 -1.226562 3.449219 0 6.160156 0 Z M 9.769531 0 "/></g></g></g><g fill="#ffffff" fill-opacity="1"><g transform="translate(206.979176, 191.838995)"><g><path d="M 4.21875 0 L 4.21875 -8.320312 C 4.476562 -8.382812 5.765625 -8.480469 6.242188 -8.480469 L 7.945312 -8.480469 L 7.945312 -11.371094 L 5.726562 -11.371094 C 4.695312 -11.371094 2.734375 -11.292969 1.070312 -10.9375 L 1.070312 0 Z M 4.21875 0 "/></g></g></g><g fill="#ffffff" fill-opacity="1"><g transform="translate(214.922385, 191.838995)"><g><path d="M 2.636719 -12.859375 C 3.507812 -12.859375 4.199219 -13.292969 4.199219 -14.246094 C 4.199219 -15.097656 3.566406 -15.613281 2.636719 -15.613281 C 1.722656 -15.613281 1.070312 -15.097656 1.070312 -14.246094 C 1.070312 -13.292969 1.78125 -12.859375 2.636719 -12.859375 Z M 4.21875 0 L 4.21875 -11.371094 L 1.070312 -11.371094 L 1.070312 0 Z M 4.21875 0 "/></g></g></g><g fill="#ffffff" fill-opacity="1"><g transform="translate(133.786258, 219.461667)"><g><path d="M 9.253906 0.257812 C 11.433594 0.257812 13.097656 -0.355469 14.523438 -1.25 L 13.3125 -3.804688 C 11.945312 -2.972656 10.601562 -2.65625 9.253906 -2.65625 C 6.320312 -2.65625 3.980469 -4.773438 3.980469 -8.003906 L 3.980469 -8.042969 C 3.980469 -11.414062 6.339844 -13.433594 9.253906 -13.433594 C 10.601562 -13.433594 11.945312 -13.097656 13.3125 -12.265625 L 14.523438 -14.820312 C 13.058594 -15.75 11.351562 -16.347656 9.253906 -16.347656 C 4.21875 -16.347656 0.8125 -12.976562 0.8125 -8.042969 L 0.8125 -8.003906 C 0.8125 -3.070312 4.238281 0.257812 9.253906 0.257812 Z M 9.253906 0.257812 "/></g></g></g><g fill="#ffffff" fill-opacity="1"><g transform="translate(148.365456, 219.461667)"><g><path d="M 6.378906 -11.769531 C 4.933594 -11.769531 3.25 -11.453125 2.398438 -11.113281 L 1.703125 -8.320312 C 2.953125 -8.816406 4.578125 -9.113281 5.707031 -9.113281 C 7.449219 -9.113281 8.441406 -8.597656 8.441406 -7.171875 L 8.441406 -6.757812 C 7.507812 -6.875 6.695312 -6.914062 5.863281 -6.914062 C 2.753906 -6.914062 0.792969 -5.804688 0.792969 -3.386719 L 0.792969 -3.347656 C 0.792969 -0.671875 2.953125 0.316406 6.4375 0.316406 C 7.984375 0.316406 10.023438 0.0976562 11.589844 -0.238281 L 11.589844 -7.269531 C 11.589844 -10.640625 9.53125 -11.769531 6.378906 -11.769531 Z M 4.023438 -3.546875 C 4.023438 -4.558594 4.972656 -4.914062 6.558594 -4.914062 C 7.054688 -4.914062 7.804688 -4.855469 8.441406 -4.753906 L 8.441406 -2.296875 C 7.785156 -2.199219 7.09375 -2.140625 6.558594 -2.140625 C 4.953125 -2.140625 4.023438 -2.535156 4.023438 -3.507812 Z M 4.023438 -3.546875 "/></g></g></g><g fill="#ffffff" fill-opacity="1"><g transform="translate(160.230832, 219.461667)"><g><path d="M 5.804688 0.257812 C 9.191406 0.257812 10.878906 -0.972656 10.878906 -3.425781 C 10.878906 -5.230469 9.6875 -6.339844 7.132812 -7.054688 L 6.320312 -7.269531 C 4.953125 -7.667969 4.398438 -7.945312 4.398438 -8.519531 C 4.398438 -9.152344 5.070312 -9.371094 6.222656 -9.371094 C 7.191406 -9.371094 8.558594 -9.152344 9.570312 -8.617188 L 10.480469 -10.816406 C 9.3125 -11.433594 7.570312 -11.808594 5.84375 -11.808594 C 2.894531 -11.808594 1.226562 -10.519531 1.226562 -8.421875 C 1.226562 -6.539062 2.296875 -5.429688 4.675781 -4.792969 L 5.746094 -4.515625 C 7.410156 -4.0625 7.785156 -3.804688 7.785156 -3.191406 C 7.785156 -2.359375 6.875 -2.179688 5.527344 -2.179688 C 4.378906 -2.179688 2.992188 -2.4375 1.664062 -3.011719 L 0.8125 -0.734375 C 2.4375 -0.0585938 4.023438 0.257812 5.804688 0.257812 Z M 5.804688 0.257812 "/></g></g></g><g fill="#ffffff" fill-opacity="1"><g transform="translate(171.145379, 219.461667)"><g><path d="M 9.769531 0 L 9.769531 -2.914062 L 7.570312 -2.914062 C 6.222656 -2.914062 5.605469 -3.425781 5.605469 -4.695312 L 5.605469 -8.480469 L 9.746094 -8.480469 L 9.746094 -11.371094 L 5.605469 -11.371094 L 5.605469 -14.859375 L 2.457031 -14.859375 L 2.457031 -11.371094 L 0.457031 -11.371094 L 0.457031 -8.480469 L 2.457031 -8.480469 L 2.457031 -3.703125 C 2.457031 -1.226562 3.449219 0 6.160156 0 Z M 9.769531 0 "/></g></g></g><g fill="#ffffff" fill-opacity="1"><g transform="translate(180.990242, 219.461667)"><g><path d="M 12.582031 -5.308594 C 12.582031 -9.371094 10.363281 -11.828125 6.714844 -11.828125 C 3.109375 -11.828125 0.792969 -9.332031 0.792969 -5.785156 L 0.792969 -5.765625 C 0.792969 -2.160156 3.269531 0.296875 7.09375 0.296875 C 9.3125 0.296875 10.878906 -0.394531 12.027344 -1.109375 L 10.660156 -3.546875 C 9.828125 -2.953125 8.617188 -2.457031 7.230469 -2.457031 C 5.507812 -2.457031 4.378906 -3.566406 4.0625 -5.03125 L 12.582031 -5.03125 Z M 6.695312 -9.273438 C 8.222656 -9.273438 9.132812 -8.28125 9.371094 -6.972656 L 4.082031 -6.972656 C 4.378906 -8.28125 5.328125 -9.273438 6.695312 -9.273438 Z M 6.695312 -9.273438 "/></g></g></g><g fill="#ffffff" fill-opacity="1"><g transform="translate(193.62816, 219.461667)"><g><path d="M 4.21875 0 L 4.21875 -16.066406 L 1.070312 -16.066406 L 1.070312 0 Z M 4.21875 0 "/></g></g></g><g fill="#ffffff" fill-opacity="1"><g transform="translate(198.16423, 219.461667)"><g><path d="M 4.21875 0 L 4.21875 -16.066406 L 1.070312 -16.066406 L 1.070312 0 Z M 4.21875 0 "/></g></g></g><g fill="#ffffff" fill-opacity="1"><g transform="translate(202.700301, 219.461667)"><g><path d="M 6.339844 0.316406 C 7.488281 0.316406 9.726562 0.0585938 11.609375 -0.277344 L 11.609375 -11.371094 L 8.480469 -11.371094 L 8.480469 -2.574219 C 7.746094 -2.4375 7.035156 -2.378906 6.480469 -2.378906 C 4.992188 -2.378906 4.21875 -2.894531 4.21875 -4.339844 L 4.21875 -11.371094 L 1.070312 -11.371094 L 1.070312 -4.082031 C 1.070312 -0.671875 3.527344 0.316406 6.339844 0.316406 Z M 6.339844 0.316406 "/></g></g></g><g fill="#ffffff" fill-opacity="1"><g transform="translate(214.644914, 219.461667)"><g><path d="M 6.972656 0.296875 C 8.339844 0.296875 9.828125 -0.0390625 10.898438 -0.632812 L 9.667969 -2.972656 C 8.875 -2.554688 8.0625 -2.316406 7.132812 -2.316406 C 5.113281 -2.316406 3.960938 -3.785156 3.960938 -5.746094 L 3.960938 -5.785156 C 3.960938 -7.765625 5.113281 -9.191406 7.132812 -9.191406 C 8.0625 -9.191406 8.894531 -8.9375 9.667969 -8.519531 L 10.917969 -10.859375 C 9.828125 -11.472656 8.339844 -11.828125 6.972656 -11.828125 C 3.230469 -11.828125 0.792969 -9.332031 0.792969 -5.785156 L 0.792969 -5.746094 C 0.792969 -2.179688 3.25 0.296875 6.972656 0.296875 Z M 6.972656 0.296875 "/></g></g></g><g fill="#ffffff" fill-opacity="1"><g transform="translate(225.282135, 219.461667)"><g><path d="M 6.972656 0.296875 C 8.339844 0.296875 9.828125 -0.0390625 10.898438 -0.632812 L 9.667969 -2.972656 C 8.875 -2.554688 8.0625 -2.316406 7.132812 -2.316406 C 5.113281 -2.316406 3.960938 -3.785156 3.960938 -5.746094 L 3.960938 -5.785156 C 3.960938 -7.765625 5.113281 -9.191406 7.132812 -9.191406 C 8.0625 -9.191406 8.894531 -8.9375 9.667969 -8.519531 L 10.917969 -10.859375 C 9.828125 -11.472656 8.339844 -11.828125 6.972656 -11.828125 C 3.230469 -11.828125 0.792969 -9.332031 0.792969 -5.785156 L 0.792969 -5.746094 C 0.792969 -2.179688 3.25 0.296875 6.972656 0.296875 Z M 6.972656 0.296875 "/></g></g></g><g fill="#ffffff" fill-opacity="1"><g transform="translate(235.919356, 219.461667)"><g><path d="M 2.636719 -12.859375 C 3.507812 -12.859375 4.199219 -13.292969 4.199219 -14.246094 C 4.199219 -15.097656 3.566406 -15.613281 2.636719 -15.613281 C 1.722656 -15.613281 1.070312 -15.097656 1.070312 -14.246094 C 1.070312 -13.292969 1.78125 -12.859375 2.636719 -12.859375 Z M 4.21875 0 L 4.21875 -11.371094 L 1.070312 -11.371094 L 1.070312 0 Z M 4.21875 0 "/></g></g></g><g fill="#03fa6e" fill-opacity="1"><g transform="translate(118.800195, 252.799906)"><g><path d="M 4.078125 0 L 4.078125 -15.601562 L 1.039062 -15.601562 L 1.039062 0 Z M 4.078125 0 "/></g></g></g><g fill="#03fa6e" fill-opacity="1"><g transform="translate(123.184395, 252.799906)"><g><path d="M 8.984375 0.25 C 11.101562 0.25 12.714844 -0.347656 14.101562 -1.210938 L 12.925781 -3.695312 C 11.601562 -2.886719 10.292969 -2.578125 8.984375 -2.578125 C 6.136719 -2.578125 3.867188 -4.636719 3.867188 -7.773438 L 3.867188 -7.808594 C 3.867188 -11.082031 6.15625 -13.042969 8.984375 -13.042969 C 10.292969 -13.042969 11.601562 -12.714844 12.925781 -11.90625 L 14.101562 -14.390625 C 12.675781 -15.292969 11.023438 -15.871094 8.984375 -15.871094 C 4.097656 -15.871094 0.789062 -12.601562 0.789062 -7.808594 L 0.789062 -7.773438 C 0.789062 -2.980469 4.117188 0.25 8.984375 0.25 Z M 8.984375 0.25 "/></g></g></g><g fill="#03fa6e" fill-opacity="1"><g transform="translate(137.337708, 252.799906)"><g><path d="M 8.367188 0 L 8.367188 -12.773438 L 13.3125 -12.773438 L 13.3125 -15.601562 L 0.382812 -15.601562 L 0.382812 -12.773438 L 5.347656 -12.773438 L 5.347656 0 Z M 8.367188 0 "/></g></g></g><g fill="#03fa6e" fill-opacity="1"><g transform="translate(150.298727, 252.799906)"><g/></g></g><g fill="#03fa6e" fill-opacity="1"><g transform="translate(152.817563, 252.799906)"><g><path d="M 8.367188 -4.230469 L 8.367188 -6.90625 L 0.769531 -6.90625 L 0.769531 -4.230469 Z M 8.367188 -4.230469 "/></g></g></g><g fill="#03fa6e" fill-opacity="1"><g transform="translate(161.240177, 252.799906)"><g/></g></g><g fill="#03fa6e" fill-opacity="1"><g transform="translate(163.759013, 252.799906)"><g><path d="M 6.367188 0 C 11.773438 0 14.464844 -2.980469 14.464844 -7.867188 L 14.464844 -7.90625 C 14.464844 -12.660156 11.792969 -15.601562 6.367188 -15.601562 L 1.039062 -15.601562 L 1.039062 0 Z M 4.078125 -12.773438 L 6.289062 -12.773438 C 9.597656 -12.773438 11.371094 -11.0625 11.371094 -7.90625 L 11.371094 -7.867188 C 11.371094 -4.578125 9.582031 -2.828125 6.289062 -2.828125 L 4.078125 -2.828125 Z M 4.078125 -12.773438 "/></g></g></g><g fill="#03fa6e" fill-opacity="1"><g transform="translate(178.258473, 252.799906)"><g><path d="M 12.214844 -5.15625 C 12.214844 -9.097656 10.0625 -11.484375 6.523438 -11.484375 C 3.019531 -11.484375 0.769531 -9.0625 0.769531 -5.617188 L 0.769531 -5.597656 C 0.769531 -2.097656 3.175781 0.289062 6.886719 0.289062 C 9.042969 0.289062 10.5625 -0.382812 11.675781 -1.078125 L 10.351562 -3.445312 C 9.542969 -2.867188 8.367188 -2.386719 7.023438 -2.386719 C 5.347656 -2.386719 4.25 -3.460938 3.945312 -4.886719 L 12.214844 -4.886719 Z M 6.503906 -9.003906 C 7.984375 -9.003906 8.867188 -8.042969 9.097656 -6.773438 L 3.964844 -6.773438 C 4.25 -8.042969 5.175781 -9.003906 6.503906 -9.003906 Z M 6.503906 -9.003906 "/></g></g></g><g fill="#03fa6e" fill-opacity="1"><g transform="translate(190.527197, 252.799906)"><g><path d="M 6.097656 -2.15625 L 3.425781 -11.042969 L 0.230469 -11.042969 L 4 0 L 8.195312 0 L 11.964844 -11.042969 L 8.773438 -11.042969 Z M 6.097656 -2.15625 "/></g></g></g><g fill="#03fa6e" fill-opacity="1"><g transform="translate(201.988242, 252.799906)"><g/></g></g><g fill="#03fa6e" fill-opacity="1"><g transform="translate(204.507081, 252.799906)"><g><path d="M 8.367188 -4.230469 L 8.367188 -6.90625 L 0.769531 -6.90625 L 0.769531 -4.230469 Z M 8.367188 -4.230469 "/></g></g></g><g fill="#03fa6e" fill-opacity="1"><g transform="translate(212.929697, 252.799906)"><g/></g></g><g fill="#03fa6e" fill-opacity="1"><g transform="translate(215.44853, 252.799906)"><g><path d="M 8.964844 0.25 C 13.792969 0.25 17.121094 -3.308594 17.121094 -7.808594 L 17.121094 -7.828125 C 17.121094 -12.371094 13.8125 -15.871094 8.964844 -15.871094 C 4.097656 -15.871094 0.789062 -12.371094 0.789062 -7.828125 L 0.789062 -7.808594 C 0.789062 -3.308594 4.117188 0.25 8.964844 0.25 Z M 8.964844 -2.578125 C 6.117188 -2.578125 3.867188 -4.65625 3.867188 -7.808594 L 3.867188 -7.828125 C 3.867188 -11.003906 6.117188 -13.042969 8.964844 -13.042969 C 11.792969 -13.042969 14.042969 -11.003906 14.042969 -7.828125 L 14.042969 -7.808594 C 14.042969 -4.65625 11.792969 -2.578125 8.964844 -2.578125 Z M 8.964844 -2.578125 "/></g></g></g><g fill="#03fa6e" fill-opacity="1"><g transform="translate(232.621041, 252.799906)"><g><path d="M 4.097656 4.230469 L 4.097656 -0.0195312 C 4.769531 0.152344 5.484375 0.289062 6.195312 0.289062 C 9.945312 0.289062 12.195312 -2.191406 12.195312 -5.558594 L 12.195312 -5.597656 C 12.195312 -8.984375 9.832031 -11.484375 6.058594 -11.484375 C 4 -11.484375 2.367188 -10.964844 1.039062 -10.425781 L 1.039062 4.230469 Z M 6.058594 -2.441406 C 5.40625 -2.441406 4.695312 -2.597656 4.097656 -2.75 L 4.097656 -8.523438 C 4.695312 -8.675781 5.347656 -8.753906 6.058594 -8.753906 C 8.078125 -8.753906 9.117188 -7.386719 9.117188 -5.597656 L 9.117188 -5.558594 C 9.117188 -3.789062 8.078125 -2.441406 6.058594 -2.441406 Z M 6.058594 -2.441406 "/></g></g></g><g fill="#03fa6e" fill-opacity="1"><g transform="translate(244.870533, 252.799906)"><g><path d="M 5.636719 0.25 C 8.925781 0.25 10.5625 -0.941406 10.5625 -3.328125 C 10.5625 -5.078125 9.40625 -6.15625 6.925781 -6.847656 L 6.136719 -7.058594 C 4.808594 -7.445312 4.269531 -7.714844 4.269531 -8.273438 C 4.269531 -8.886719 4.925781 -9.097656 6.039062 -9.097656 C 6.984375 -9.097656 8.3125 -8.886719 9.292969 -8.367188 L 10.175781 -10.503906 C 9.042969 -11.101562 7.347656 -11.464844 5.675781 -11.464844 C 2.808594 -11.464844 1.191406 -10.214844 1.191406 -8.175781 C 1.191406 -6.347656 2.230469 -5.269531 4.539062 -4.65625 L 5.578125 -4.386719 C 7.195312 -3.945312 7.558594 -3.695312 7.558594 -3.097656 C 7.558594 -2.289062 6.675781 -2.117188 5.367188 -2.117188 C 4.25 -2.117188 2.90625 -2.367188 1.617188 -2.925781 L 0.789062 -0.710938 C 2.367188 -0.0585938 3.90625 0.25 5.636719 0.25 Z M 5.636719 0.25 "/></g></g></g></svg>